<svg xmlns="http://www.w3.org/2000/svg" width="512" height="512"><path style="fill:#dd3e0e;stroke:none" d="M89 .515C70.17 4.375 56.904 23.096 44 36L19 61C12.743 67.257 5.79 73.524 2.556 82c-4.2 11.005-4.013 25.637 1.912 36 5.324 9.313 14.027 16.495 21.532 24l65 65 36 36c2.908 2.908 12.035 9.272 10.793 14-.995 3.79-6.132 7.339-8.793 10l-23 23-75 75C19.348 376.652 3.998 388.008.515 405c-2.092 10.203-.457 22.224 5.185 31 7.047 10.962 18.13 19.831 27.3 29 21.373 21.373 50.037 62.369 85 42.381 14.202-8.119 25.515-22.896 37-34.381l67-67 25-25c2.324-2.322 6.159-7.802 10-6.793 3.79.995 7.339 6.132 10 8.793l21 21 82 82c15.099 15.099 30.478 31.265 54 25.239 18.371-4.706 31.183-22.422 44-35.239l25-25c6.257-6.257 13.21-12.524 16.444-21 4.2-11.005 4.013-25.637-1.912-36-5.324-9.313-14.027-16.495-21.532-24l-65-65-36-36c-2.908-2.908-12.035-9.272-10.793-14 .995-3.79 6.132-7.339 8.793-10l23-23 75-75c11.608-11.608 27.009-23.049 30.485-40 2.239-10.916.085-22.713-5.925-32-6.824-10.547-17.714-19.154-26.56-28l-14-14C448.141 16.14 431.7-4.959 405 .515c-3.792.777-7.636 2.03-11 3.953-14.171 8.101-25.546 23.078-37 34.532l-67 67-25 25c-2.324 2.322-6.159 7.802-10 6.793-3.79-.995-7.339-6.132-10-8.793l-21-21-81-81C127.589 11.589 112.917-4.388 89 .515z"/></svg>