<svg xmlns="http://www.w3.org/2000/svg" viewBox="0 0 368 368" style="enable-background:new 0 0 368 368" xml:space="preserve"><path style="fill:#fff" d="M-14 112.727c0-96.4 99.6-153.2 157.6-85.2 9.6 11.2 27.2 11.2 36.8 0 58-68.4 157.6-11.2 157.6 85.2 0 90-85.6 143.6-158.4 201.6-10.4 8-24.8 8-35.2 0-72.8-58-158.4-112-158.4-201.6z" transform="translate(22 25)"/><path style="fill:#fff" d="M216.8 1.527c55.6-19.6 121.2 32.8 121.2 111.2 0 90-162.8 212-173.2 204 115.2-138.8 173.2-227.2 52-315.2z" transform="translate(22 25)"/><path style="fill:#000" d="M162 328.327c-8 0-16-2.4-22.4-7.6-8.8-7.2-17.6-14-26.8-20.8-66.4-51.2-134.8-104.4-134.8-187.2 0-53.6 30-100.8 74.8-117.6 35.2-12.8 71.6-2.8 96.8 27.2 3.2 3.6 7.6 5.6 12.4 5.6s9.2-2 12.4-5.6c25.6-30 61.6-40 96.8-27.2 44.8 16.4 74.8 63.6 74.8 117.6 0 82.8-68.4 135.6-134.4 186.8-9.2 7.2-18 14-27.2 21.2-6.4 5.2-14.4 7.6-22.4 7.6zM83.2 5.527c-8 0-16.4 1.6-24.8 4.8-32.4 11.6-64.4 48-64.4 102.4 0 74.8 65.6 125.6 128.8 174.4 8.8 6.8 18 14 26.8 20.8 7.2 5.6 18 5.6 25.2 0 8.8-7.2 18-14 27.2-21.2 66-50.8 128-99.2 128-174 0-54.4-32.4-90.8-64.4-102.8-29.2-10.8-58-2.4-79.2 22.8-6 7.2-15.2 11.2-24.4 11.2s-18.4-4-24.4-11.2c-15.2-17.6-34.4-27.2-54.4-27.2z" transform="translate(22 25)"/><path style="fill:#000" d="M106 232.327c-1.6 0-3.6-.4-4.8-1.6-27.6-22-46-40.4-59.2-58.8-2.4-3.6-1.6-8.4 2-11.2 3.6-2.4 8.4-1.6 11.2 2 12.4 17.2 29.6 34.4 56 55.6 3.6 2.8 4 7.6 1.2 11.2-2 2-4 2.8-6.4 2.8zm-74.8-93.6c-3.6 0-6.8-2.4-7.6-6-1.6-6-2.4-12-3.6-18.4-.4-4.4 2.4-8.4 6.8-8.8s8.4 2.4 8.8 6.8c.8 6 1.6 11.2 2.8 16 1.2 4.4-1.2 8.8-5.6 10-.4.4-.8.4-1.6.4z" transform="translate(22 25)"/></svg>