<svg xmlns="http://www.w3.org/2000/svg" width="512" height="512">
<path style="fill:#dd3e0e; stroke:none;" d="M89 0.514648C70.1691 4.37488 56.9035 23.0965 44 36L19 61C12.7434 67.2566 5.79014 73.5241 2.55556 82C-1.64416 93.0049 -1.4571 107.637 4.46759 118C9.79154 127.313 18.4947 134.495 26 142L91 207L127 243C129.908 245.908 139.035 252.272 137.793 257C136.798 260.79 131.661 264.339 129 267L106 290L31 365C19.3484 376.652 3.99791 388.008 0.51466 405C-1.57688 415.203 0.0580168 427.224 5.69985 436C12.7469 446.962 23.8308 455.831 33 465C54.373 486.373 83.0372 527.369 118 507.381C132.202 499.262 143.515 484.485 155 473L222 406L247 381C249.324 378.678 253.159 373.198 257 374.207C260.79 375.202 264.339 380.339 267 383L288 404L370 486C385.099 501.099 400.478 517.265 424 511.239C442.371 506.533 455.183 488.817 468 476L493 451C499.257 444.743 506.21 438.476 509.444 430C513.644 418.995 513.457 404.363 507.532 394C502.208 384.687 493.505 377.505 486 370L421 305L385 269C382.092 266.092 372.965 259.728 374.207 255C375.202 251.21 380.339 247.661 383 245L406 222L481 147C492.608 135.392 508.009 123.951 511.485 107C513.724 96.0836 511.57 84.2875 505.56 75C498.736 64.4528 487.846 55.8465 479 47L465 33C448.141 16.1405 431.7 -4.95868 405 0.514648C401.208 1.29199 397.364 2.54453 394 4.46759C379.829 12.569 368.454 27.5461 357 39L290 106L265 131C262.676 133.322 258.841 138.802 255 137.793C251.21 136.798 247.661 131.661 245 129L224 108L143 27C127.589 11.5887 112.917 -4.38824 89 0.514648z"/>
</svg>